<?xml version="1.0" encoding="utf-8"?>
<!-- Generator: Adobe Illustrator 17.0.0, SVG Export Plug-In . SVG Version: 6.00 Build 0)  -->
<!DOCTYPE svg PUBLIC "-//W3C//DTD SVG 1.1//EN" "http://www.w3.org/Graphics/SVG/1.1/DTD/svg11.dtd">
<svg version="1.1" id="Layer_1" xmlns="http://www.w3.org/2000/svg" xmlns:xlink="http://www.w3.org/1999/xlink" x="0px" y="0px"
	 width="1831.63px" height="400px" viewBox="0 0 1831.63 400" enable-background="new 0 0 1831.63 400" xml:space="preserve">
<g>
	<defs>
		<rect id="SVGID_1_" width="1831.629" height="400"/>
	</defs>
	<clipPath id="SVGID_2_">
		<use xlink:href="#SVGID_1_"  overflow="visible"/>
	</clipPath>
	<path clip-path="url(#SVGID_2_)" fill="#161148" d="M0,204.245h50.666c4.221,36.082,20.727,52.588,63.335,52.588
		c41.45,0,59.494-17.658,59.494-42.992c0-18.806-10.364-31.091-52.204-37.234l-34.928-4.989C29.17,163.559,6.911,143.6,6.911,99.076
		c0-49.134,34.928-84.062,105.937-84.062c71.01,0,105.938,34.549,105.938,87.899h-49.514c-3.458-32.243-21.111-48.75-57.577-48.75
		c-36.465,0-52.586,16.891-52.586,41.839c0,18.812,8.831,28.408,45.292,33.397l34.928,4.99c55.66,8.059,86.363,29.17,86.363,76.383
		c0,51.05-36.844,85.21-112.844,85.21C36.85,295.982,0,262.586,0,204.245"/>
	<path clip-path="url(#SVGID_2_)" fill="#161148" d="M395.735,210.007L395.735,210.007c0,28.777-17.279,52.203-47.991,52.203
		c-25.314,0-36.445-11.906-36.445-29.554c0-14.201,9.969-24.58,34.918-26.88l23.407-1.916c13.452-1.159,22.649-3.453,26.111-7.67
		V210.007z M445.249,241.472v-84.826c0-40.293-25.338-66.404-86.373-66.404c-61.01,0-86.348,26.111-86.348,66.404h49.124
		c1.917-21.102,14.596-31.091,37.613-31.091c24.566,0,36.47,11.517,36.47,31.091c0,10.36-5.763,15.733-25.727,17.669l-40.292,3.439
		c-49.902,3.841-67.936,28.022-67.936,58.345c0,36.469,24.954,59.892,71.394,59.892c33.765,0,53.73-11.906,64.862-34.554
		c0,15.343,2.684,23.421,8.442,30.707h44.914C447.549,285.612,445.249,268.352,445.249,241.472"/>
	<path clip-path="url(#SVGID_2_)" fill="#4BA8DE" d="M391.87,203.378v6.633c0,24.054-13.648,48.335-44.125,48.335
		c-14.859,0-32.583-4.465-32.583-25.688c0-13.357,10.574-21.106,31.405-23.038l23.368-1.911
		C379.75,206.857,386.9,205.465,391.87,203.378"/>
	<path clip-path="url(#SVGID_2_)" fill="#28A8E0" d="M391.87,203.378v6.633c0,24.054-13.648,48.335-44.125,48.335
		c-14.859,0-32.583-4.465-32.583-25.688c0-13.357,10.574-21.106,31.405-23.038l23.368-1.911
		C379.75,206.857,386.9,205.465,391.87,203.378"/>
	<path clip-path="url(#SVGID_2_)" fill="#161148" d="M581.497,51.861l20.738,0.383V18.848c-8.058-0.774-23.791-1.91-32.623-1.91
		c-42.613,0-59.873,18.417-59.873,59.872v17.279h-31.096v35.308h31.096v162.746h49.515V129.397h42.981V94.089h-42.981V74.898
		C559.254,59.534,565.765,51.861,581.497,51.861"/>
	<path clip-path="url(#SVGID_2_)" fill="#161148" d="M761.913,210.004L761.913,210.004v-13.817
		c-3.458,4.222-12.669,6.527-26.102,7.674l-23.417,1.921c-24.949,2.301-34.927,12.665-34.927,26.87
		c0,17.655,11.131,29.55,36.464,29.55C744.638,262.202,761.913,238.789,761.913,210.004 M627.952,236.104
		c0-30.322,18.043-54.501,67.941-58.345l40.302-3.452c19.96-1.921,25.718-7.296,25.718-17.654c0-19.579-11.9-31.091-36.465-31.091
		c-23.034,0-35.697,9.98-37.618,31.091H638.7c0-40.302,25.334-66.403,86.363-66.403c61.03,0,86.363,26.101,86.363,66.403v84.826
		c0,26.864,2.3,44.14,6.138,50.66h-44.908c-5.754-7.29-8.443-15.347-8.443-30.701c-11.127,22.644-31.092,34.545-64.867,34.545
		C652.901,295.983,627.952,272.57,627.952,236.104"/>
	<rect x="862.855" y="94.083" clip-path="url(#SVGID_2_)" fill="#161148" width="49.513" height="198.059"/>
	<path clip-path="url(#SVGID_2_)" fill="#161148" d="M1104.285,193.114L1104.285,193.114c0-45.292-19.959-65.251-49.514-65.251
		c-29.174,0-49.133,19.959-49.133,65.251s19.959,65.251,49.133,65.251C1084.326,258.365,1104.285,238.406,1104.285,193.114
		 M956.125,193.114c0-64.867,33.78-102.868,87.131-102.868c29.939,0,49.898,12.284,61.029,33.78V18.851h49.514V292.14h-47.214
		v-33.775c-10.746,23.032-30.316,37.618-63.329,37.618C989.905,295.983,956.125,257.98,956.125,193.114"/>
	<path clip-path="url(#SVGID_2_)" fill="#161148" d="M1331.514,210.004L1331.514,210.004v-13.817
		c-3.458,4.222-12.669,6.527-26.102,7.674l-23.417,1.921c-24.949,2.301-34.928,12.665-34.928,26.87
		c0,17.655,11.132,29.55,36.466,29.55C1314.24,262.202,1331.514,238.789,1331.514,210.004 M1197.554,236.104
		c0-30.322,18.042-54.501,67.94-58.345l40.303-3.452c19.959-1.921,25.717-7.296,25.717-17.654c0-19.579-11.901-31.091-36.465-31.091
		c-23.032,0-35.697,9.98-37.618,31.091h-49.13c0-40.302,25.334-66.403,86.363-66.403c61.03,0,86.363,26.101,86.363,66.403v84.826
		c0,26.864,2.3,44.14,6.143,50.66h-44.913c-5.753-7.29-8.443-15.347-8.443-30.701c-11.127,22.644-31.086,34.545-64.866,34.545
		C1222.503,295.983,1197.554,272.57,1197.554,236.104"/>
	<path clip-path="url(#SVGID_2_)" fill="#161148" d="M1558.74,210.004L1558.74,210.004v-13.817
		c-3.458,4.222-12.668,6.527-26.102,7.674l-23.417,1.921c-24.949,2.301-34.928,12.665-34.928,26.87
		c0,17.655,11.132,29.55,36.465,29.55C1541.465,262.202,1558.74,238.789,1558.74,210.004 M1424.78,236.104
		c0-30.322,18.038-54.501,67.941-58.345l40.298-3.452c19.964-1.921,25.722-7.296,25.722-17.654c0-19.579-11.9-31.091-36.465-31.091
		c-23.034,0-35.697,9.98-37.618,31.091h-49.13c0-40.302,25.334-66.403,86.363-66.403c61.03,0,86.364,26.101,86.364,66.403v84.826
		c0,26.864,2.299,44.14,6.136,50.66h-44.907c-5.754-7.29-8.443-15.347-8.443-30.701c-11.133,22.644-31.092,34.545-64.866,34.545
		C1449.729,295.983,1424.78,272.57,1424.78,236.104"/>
	<path clip-path="url(#SVGID_2_)" fill="#161148" d="M1659.684,292.142V94.083h47.214v44.145
		c10.363-34.934,27.633-46.829,55.27-46.829c5.375,0,13.434,1.537,18.038,2.684v43.377l-20.342-0.385
		c-30.324,0-50.666,22.644-50.666,62.952v92.115H1659.684z"/>
	<polygon clip-path="url(#SVGID_2_)" fill="#28A8E0" points="902.096,19.505 904.261,22.265 907.021,24.231 926.326,38.811 
		907.021,53.39 904.261,55.362 902.096,58.122 887.709,77.627 873.134,58.122 870.964,55.362 868.204,53.39 848.899,38.811 
		868.204,24.231 870.964,22.265 873.134,19.505 887.709,0 	"/>
	<polygon clip-path="url(#SVGID_2_)" fill="#28A8E0" points="304.93,386.265 304.93,365.927 282.454,365.927 282.454,386.265 
		273.387,386.265 273.387,338.783 282.454,338.783 282.454,358.189 304.93,358.189 304.93,338.783 313.995,338.783 313.995,386.265 
			"/>
	<path clip-path="url(#SVGID_2_)" fill="#28A8E0" d="M350.144,386.264L350.144,386.264v-34.409h8.599v34.409H350.144z
		 M349.477,342.253c0-2.534,1.8-4.471,4.999-4.471c3.203,0,4.935,1.937,4.935,4.471c0,2.535-1.732,4.467-4.935,4.467
		C351.277,346.72,349.477,344.788,349.477,342.253"/>
	<path clip-path="url(#SVGID_2_)" fill="#28A8E0" d="M418.763,368.061L418.763,368.061c0-7.137-3.472-10.739-8.602-10.739
		c-5.07,0-8.538,3.602-8.538,10.739c0,7.134,3.468,10.731,8.538,10.731C415.291,378.793,418.763,375.195,418.763,368.061
		 M393.021,368.061c0-10.135,5.868-16.872,15.14-16.872c5.733,0,9.135,2.531,11.001,6.532v-5.868h8.204v31.61
		c0,10.673-5.739,16.536-17.006,16.536c-10.338,0-15.468-4.93-15.468-12.334h8.069c0.529,4.336,3.129,6.666,7.799,6.666
		c5.064,0,8.003-2.735,8.003-8.467v-6.802c-1.936,3.738-5.403,5.868-10.602,5.868C398.889,384.931,393.021,378.195,393.021,368.061"
		/>
	<path clip-path="url(#SVGID_2_)" fill="#28A8E0" d="M484.916,386.265v-21.07c0-4.671-1.667-7.006-5.868-7.006
		c-4.536,0-7.47,3.267-7.47,8.871v19.205h-8.597v-47.482h8.597v18.008c1.872-3.339,4.935-5.604,10.139-5.604
		c7.87,0,11.802,4.002,11.802,12.34v22.738H484.916z"/>
	<path clip-path="url(#SVGID_2_)" fill="#28A8E0" d="M603.487,378.531L603.487,378.531l-9.401-12.94h7.928l6.607,9.068
		c2.136-2.865,3.269-6.932,3.269-12.135c0-10.939-4.935-17-14.54-17c-9.536,0-14.472,6.061-14.472,17
		c0,10.937,4.936,17.004,14.472,17.004C599.62,379.528,601.685,379.2,603.487,378.531 M613.023,391.599l-4.935-6.736
		c-3.069,1.333-6.672,2.066-10.738,2.066c-15.07,0-23.538-9.935-23.538-24.405c0-14.471,8.468-24.405,23.538-24.405
		c15.138,0,23.606,9.934,23.606,24.405c0,8.003-2.6,14.605-7.469,18.876l7.469,10.199H613.023z"/>
	<path clip-path="url(#SVGID_2_)" fill="#28A8E0" d="M655.235,374.596v-22.74h8.603v21.072c0,4.671,1.666,7.002,5.868,7.002
		c4.536,0,7.464-3.264,7.464-8.867v-19.207h8.608v34.41h-8.204v-5.604c-1.865,3.667-4.934,6.268-10.602,6.268
		C659.102,386.93,655.235,382.928,655.235,374.596"/>
	<path clip-path="url(#SVGID_2_)" fill="#28A8E0" d="M743.326,371.994L743.326,371.994v-2.401c-0.599,0.734-2.201,1.132-4.536,1.333
		l-4.066,0.334c-4.331,0.399-6.068,2.201-6.068,4.67c0,3.07,1.937,5.135,6.336,5.135
		C740.326,381.065,743.326,376.993,743.326,371.994 M720.054,376.529c0-5.269,3.135-9.47,11.807-10.135l6.999-0.602
		c3.464-0.335,4.467-1.269,4.467-3.07c0-3.396-2.066-5.398-6.332-5.398c-4.002,0-6.208,1.737-6.536,5.398h-8.533
		c0-7.001,4.396-11.536,15-11.536c10.602,0,15.003,4.535,15.003,11.536v14.741c0,4.664,0.399,7.669,1.067,8.801h-7.803
		c-0.999-1.267-1.463-2.665-1.463-5.334c-1.935,3.932-5.403,5.998-11.271,5.998C724.391,386.928,720.054,382.861,720.054,376.529"/>
	<rect x="787.54" y="338.787" clip-path="url(#SVGID_2_)" fill="#28A8E0" width="8.603" height="47.481"/>
	<path clip-path="url(#SVGID_2_)" fill="#28A8E0" d="M831.753,386.264L831.753,386.264v-34.409h8.602v34.409H831.753z
		 M831.089,342.253c0-2.534,1.796-4.471,4.999-4.471c3.204,0,4.935,1.937,4.935,4.471c0,2.535-1.731,4.467-4.935,4.467
		C832.885,346.72,831.089,344.788,831.089,342.253"/>
	<path clip-path="url(#SVGID_2_)" fill="#28A8E0" d="M878.901,376.596V357.99h-5.405v-6.134h5.405v-10.404h8.602v10.404h7.47v6.134
		h-7.47v18.935c0,2.675,1.132,3.608,3.872,3.608l3.598-0.07v5.803c-1.403,0.129-4.137,0.334-5.669,0.334
		C881.501,386.6,878.901,384.2,878.901,376.596"/>
	<path clip-path="url(#SVGID_2_)" fill="#28A8E0" d="M929.649,393.199h3.468c4.002,0,6.331-1.936,6.331-5.134
		c0-0.999-0.199-2.136-0.663-3.334l-12.271-32.877h9.001l8.939,27.742l8.936-27.742h9.001l-12.269,32.877
		c-4.137,11.133-8.668,14.601-17.07,14.601h-3.403V393.199z"/>
	<path clip-path="url(#SVGID_2_)" fill="#28A8E0" d="M1040.016,362.525c0-14.472,8.473-24.41,23.542-24.41
		c13.067,0,21.938,7.739,21.938,18.008h-8.602c-0.803-6.068-5.069-10.604-13.336-10.604c-9.536,0-14.472,6.068-14.472,17.006
		c0,10.938,4.936,17.005,14.472,17.005c8.137,0,12.533-4.272,13.336-11.003h8.602c0,10.469-8.602,18.402-21.938,18.402
		C1048.489,386.929,1040.016,376.994,1040.016,362.525"/>
	<rect x="1119.774" y="338.787" clip-path="url(#SVGID_2_)" fill="#28A8E0" width="8.603" height="47.481"/>
	<path clip-path="url(#SVGID_2_)" fill="#28A8E0" d="M1171.255,365.259L1171.255,365.259h17.004
		c-0.733-5.468-3.802-8.202-8.538-8.202C1174.988,357.057,1171.988,359.79,1171.255,365.259 M1162.652,369.063
		c0-10.604,6.003-17.874,17.069-17.874c11.138,0,17.14,7.335,17.14,17.47c0,0.732-0.069,1.401-0.128,2.2h-25.478
		c0.264,7.006,3.602,10.204,8.867,10.204c4.269,0,7.069-2.13,8.073-5.669h7.934c-1.467,7.07-6.737,11.537-16.007,11.537
		C1168.92,386.931,1162.652,379.93,1162.652,369.063"/>
	<path clip-path="url(#SVGID_2_)" fill="#28A8E0" d="M1253.078,371.994L1253.078,371.994v-2.401c-0.597,0.734-2.2,1.132-4.535,1.333
		l-4.067,0.334c-4.336,0.399-6.067,2.201-6.067,4.67c0,3.07,1.931,5.135,6.332,5.135
		C1250.08,381.065,1253.078,376.993,1253.078,371.994 M1229.806,376.529c0-5.269,3.134-9.47,11.806-10.135l7.002-0.602
		c3.462-0.335,4.464-1.269,4.464-3.07c0-3.396-2.065-5.398-6.332-5.398c-4.002,0-6.202,1.737-6.536,5.398h-8.533
		c0-7.001,4.397-11.536,15-11.536s15.004,4.535,15.004,11.536v14.741c0,4.664,0.398,7.669,1.068,8.801h-7.804
		c-0.997-1.267-1.461-2.665-1.461-5.334c-1.937,3.932-5.406,5.998-11.273,5.998C1234.143,386.928,1229.806,382.861,1229.806,376.529
		"/>
	<path clip-path="url(#SVGID_2_)" fill="#28A8E0" d="M1319.233,386.265v-21.07c0-4.671-1.666-7.006-5.869-7.006
		c-4.534,0-7.469,3.267-7.469,8.871v19.205h-8.598v-34.409h8.199v5.598c1.866-3.662,4.935-6.267,10.539-6.267
		c7.868,0,11.801,4.002,11.801,12.34v22.738H1319.233z"/>
	<path clip-path="url(#SVGID_2_)" fill="#28A8E0" d="M1363.448,386.264L1363.448,386.264v-34.409h8.602v34.409H1363.448z
		 M1362.779,342.253c0-2.534,1.802-4.471,5-4.471c3.203,0,4.935,1.937,4.935,4.471c0,2.535-1.732,4.467-4.935,4.467
		C1364.58,346.72,1362.779,344.788,1362.779,342.253"/>
	<path clip-path="url(#SVGID_2_)" fill="#28A8E0" d="M1429.597,386.265v-21.07c0-4.671-1.666-7.006-5.868-7.006
		c-4.535,0-7.47,3.267-7.47,8.871v19.205h-8.602v-34.409h8.204v5.598c1.865-3.662,4.934-6.267,10.533-6.267
		c7.874,0,11.806,4.002,11.806,12.34v22.738H1429.597z"/>
	<path clip-path="url(#SVGID_2_)" fill="#28A8E0" d="M1498.221,368.061L1498.221,368.061c0-7.137-3.474-10.739-8.602-10.739
		c-5.072,0-8.538,3.602-8.538,10.739c0,7.134,3.466,10.731,8.538,10.731C1494.747,378.793,1498.221,375.195,1498.221,368.061
		 M1472.478,368.061c0-10.135,5.867-16.872,15.139-16.872c5.732,0,9.135,2.531,11.003,6.532v-5.868h8.202v31.61
		c0,10.673-5.739,16.536-17.004,16.536c-10.34,0-15.468-4.93-15.468-12.334h8.063c0.533,4.336,3.133,6.666,7.803,6.666
		c5.066,0,8.005-2.735,8.005-8.467v-6.802c-1.936,3.738-5.405,5.868-10.604,5.868
		C1478.345,384.931,1472.478,378.195,1472.478,368.061"/>
	<path clip-path="url(#SVGID_2_)" fill="#161148" d="M1790.055,9.822c-19.589-0.096-35.694,15.948-35.706,35.569
		c-0.012,19.567,15.978,35.539,35.616,35.574c19.598,0.036,35.606-15.911,35.665-35.528
		C1825.688,25.888,1809.738,9.918,1790.055,9.822 M1789.982,73.876c-15.654-0.007-28.547-12.879-28.53-28.489
		c0.017-15.642,12.887-28.482,28.542-28.475c15.666,0.008,28.545,12.866,28.53,28.486
		C1818.512,61.038,1805.639,73.881,1789.982,73.876"/>
	<path clip-path="url(#SVGID_2_)" fill="#161148" d="M1806.446,62.269c-2.601-3.639-5.193-7.283-7.819-10.906
		c-0.36-0.496-0.365-0.678,0.195-1.03c3.893-2.455,6.098-7.533,5.295-12.056c-1.134-6.388-6.259-10.685-12.763-10.689
		c-4.625-0.005-9.248-0.001-13.872-0.001c-1.743,0-1.743,0-1.743,1.714c0,10.98,0.01,21.961-0.022,32.941
		c-0.001,0.833,0.232,1.007,1.016,0.98c1.781-0.062,3.565-0.052,5.347-0.003c0.645,0.018,0.784-0.177,0.777-0.791
		c-0.033-3.058,0-6.116-0.029-9.174c-0.006-0.579,0.15-0.752,0.737-0.743c2.005,0.037,4.012,0.036,6.016,0.001
		c0.559-0.01,0.905,0.158,1.237,0.612c2.315,3.194,4.662,6.366,6.994,9.549c0.218,0.297,0.395,0.544,0.847,0.54
		c2.753-0.025,5.508-0.011,8.435-0.011C1806.821,62.806,1806.638,62.534,1806.446,62.269 M1791.882,45.386
		c-2.784,0.033-5.571-0.007-8.354,0.022c-0.54,0.004-0.713-0.125-0.699-0.684c0.04-1.583,0.014-3.168,0.014-4.751
		c0-1.53,0.015-3.058-0.008-4.585c-0.007-0.461,0.04-0.692,0.611-0.685c2.812,0.033,5.626-0.014,8.437,0.026
		c2.852,0.04,5.291,2.591,5.251,5.423C1797.093,42.937,1794.7,45.353,1791.882,45.386"/>
</g>
</svg>
